<svg width="512" height="512" xmlns="http://www.w3.org/2000/svg">

 <title/>
 <g>
  <title>background</title>
  <rect fill="none" id="canvas_background" height="402" width="582" y="-1" x="-1"/>
 </g>
 <g>
  <title>Layer 1</title>
  <path fill="#01bd8b" id="svg_1" d="m480.31,319.72l-49.15,-40.48a168.54,168.54 0 0 0 0,-46.48l49.15,-40.48a15.6,15.6 0 0 0 3.6,-19.84l-41.6,-72a15.55,15.55 0 0 0 -19,-6.8l-59.71,22.36a175.63,175.63 0 0 0 -40.14,-23.17l-10.46,-62.95a15.59,15.59 0 0 0 -15.38,-13l-83.21,0a15.59,15.59 0 0 0 -15.38,13l-10.49,62.93a175.63,175.63 0 0 0 -40.14,23.19l-59.74,-22.4a15.55,15.55 0 0 0 -19,6.8l-41.6,72a15.6,15.6 0 0 0 3.6,19.84l49.15,40.48a168.54,168.54 0 0 0 0,46.48l-49.12,40.52a15.6,15.6 0 0 0 -3.6,19.84l41.6,72a15.55,15.55 0 0 0 19,6.8l59.71,-22.36a175.63,175.63 0 0 0 40.14,23.17l10.46,62.95a15.59,15.59 0 0 0 15.38,13l83.18,0a15.59,15.59 0 0 0 15.38,-13l10.49,-62.93a175.63,175.63 0 0 0 40.17,-23.19l59.74,22.38a15.55,15.55 0 0 0 19,-6.8l41.6,-72a15.6,15.6 0 0 0 -3.63,-19.86z" class="cls-1"/>
  <path fill="#01bd8b" id="svg_2" d="m483.91,339.56l-41.6,72a15.55,15.55 0 0 1 -19,6.8l-59.71,-22.36a175.63,175.63 0 0 1 -40.14,23.17l-10.46,62.95a15.59,15.59 0 0 1 -15.38,13l-40.96,0l0,-478.28l40.93,0a15.59,15.59 0 0 1 15.38,13l10.49,62.93a175.63,175.63 0 0 1 40.14,23.23l59.74,-22.4a15.55,15.55 0 0 1 19,6.8l41.6,72a15.6,15.6 0 0 1 -3.6,19.84l-49.15,40.48a168.54,168.54 0 0 1 0,46.48l49.15,40.48a15.6,15.6 0 0 1 3.57,19.88z" class="cls-1"/>
  <path fill="#15191b" id="svg_3" d="m308.61,318.39l0,172.2a15.53,15.53 0 0 1 -11,4.57l-83.2,0a15.57,15.57 0 0 1 -9.78,-3.45l0,-173.32l103.98,0z" class="cls-2"/>
  <path fill="#15191b" id="svg_4" d="m308.61,318.39l0,172.2a15.53,15.53 0 0 1 -11,4.57l-40.97,0l0,-176.77l51.97,0z" class="cls-2"/>
  <path fill="#15191b" id="svg_5" d="m308.61,154.28l0,70.53l-52,31.19l-52,-31.19l0,-70.53a113.72,113.72 0 0 0 -62.37,101.72c0,65.13 53.07,114.35 114.32,114.38a114.28,114.28 0 0 0 52.05,-216.1z" class="cls-2"/>
  <path fill="#15191b" id="svg_6" d="m371,256a113.68,113.68 0 0 0 -62.39,-101.72l0,70.53l-52,31.19l0,114.38a114.51,114.51 0 0 0 114.39,-114.38z" class="cls-2"/>
 </g>
</svg>